<svg width="79" height="67" viewBox="0 0 79 67" fill="none" xmlns="http://www.w3.org/2000/svg">
<path d="M44.8817 65.443C37.4567 36.0524 32.8161 22.4841 27.0264 17.0922C29.9778 16.5443 30.5307 16.4783 35.9587 15.4994L38.5663 16.7369L42.8975 16.9579L45.4167 15.9856L46.4332 13.5819C50.4744 12.832 54.521 12.0681 57.2567 11.5234C64.3988 12.372 74.0218 39.8975 77.9406 53.5542C75.3182 54.497 65.0352 58.1948 44.8817 65.443Z" fill="#FACC15"/>
<path d="M44.8817 65.443C37.4567 36.0524 32.8161 22.4841 27.0264 17.0922C29.9778 16.5443 30.5307 16.4783 35.9587 15.4994L38.5663 16.7369L42.8975 16.9579L45.4167 15.9856L46.4332 13.5819C50.4744 12.832 54.521 12.0681 57.2567 11.5234C64.3988 12.372 74.0218 39.8975 77.9406 53.5542C75.3182 54.497 65.0352 58.1948 44.8817 65.443Z" fill="#D9D9D9"/>
<path d="M35.8221 34.2849L33.1703 33.4452L29.5462 34.9921C27.3187 35.4871 26.7176 34.9921 24.9498 33.4452L21.9002 30.5724C19.2484 30.7492 13.9624 26.181 13.1935 25.3573C12.5748 24.6943 11.8529 23.1033 11.6025 22.3519L1.26055 17.1368C-0.507302 3.34749 7.1534 0.784103 11.2047 1.22607L18.0993 6.17606M35.8221 34.2849C38.7685 43.9345 44.6437 63.7374 44.5729 65.7527L78.1622 53.422C74.0372 39.8684 64.0193 12.505 56.9479 11.4796L46.4734 13.5127M35.8221 34.2849C32.7031 23.8546 28.6296 18.4184 26.9828 17.0042L35.4685 15.4573" stroke="url(#paint0_linear_401_315)" stroke-width="0.795534"/>
<path d="M22.2983 23.0159C19.292 21.7342 17.9941 23.5462 18.4081 25.2257C19.2469 28.6291 21.6502 30.4263 22.2985 30.883" stroke="white" stroke-width="0.795534"/>
<path d="M30.4751 21.6009L28.3095 19.833C26.2764 19.5678 25.1546 21.2108 25.2407 22.8384M34.1434 29.5562C33.3478 29.4678 28.3095 25.9763 25.9671 24.5178C25.4835 23.9008 25.2673 23.3406 25.2407 22.8384M25.2407 22.8384C20.752 21.4683 20.4425 26.3299 22.6081 27.3022C25.363 29.5562 31.1999 33.9847 32.5081 33.6665" stroke="white" stroke-width="0.795534"/>
<path d="M26.4512 10.3315C27.1583 12.6739 34.7601 15.1843 36.8815 16.0329" stroke="white" stroke-width="0.795534"/>
<path d="M24.949 5.24868L24.942 5.64639L24.9677 5.64684L24.9932 5.64398L24.949 5.24868ZM32.9927 6.61877L32.6866 6.87277L32.7567 6.9573L32.8603 6.99386L32.9927 6.61877ZM41.832 11.5688L41.48 11.754L41.5643 11.9141L41.7403 11.9558L41.832 11.5688ZM39.8874 16.9607L39.9313 16.5654L39.8874 16.9607ZM35.1569 13.4C35.0942 13.1894 34.8727 13.0695 34.6622 13.1321C34.4516 13.1948 34.3317 13.4163 34.3943 13.6268L35.1569 13.4ZM14.3076 9.64029C14.8843 8.86378 15.5633 7.85856 17.0662 7.04234C18.5756 6.22261 20.9542 5.57643 24.942 5.64639L24.956 4.85098C20.8824 4.77951 18.355 5.43712 16.6865 6.34326C15.0116 7.25291 14.241 8.39563 13.6689 9.16599L14.3076 9.64029ZM24.9932 5.64398C26.0254 5.52849 27.6621 5.45716 29.2025 5.61779C29.9726 5.6981 30.7053 5.83508 31.3211 6.04667C31.9424 6.2601 32.408 6.53701 32.6866 6.87277L33.2988 6.36477C32.888 5.86964 32.2668 5.53038 31.5796 5.2943C30.8872 5.05637 30.0901 4.9105 29.285 4.82654C27.6749 4.65864 25.9792 4.73316 24.9047 4.85338L24.9932 5.64398ZM32.8603 6.99386C33.5777 7.24705 35.6506 8.25948 37.6205 9.32744C38.6002 9.85855 39.5419 10.3967 40.2634 10.852C40.6248 11.0801 40.9248 11.2836 41.1448 11.4523C41.255 11.5368 41.3398 11.6086 41.4003 11.6669C41.4664 11.7307 41.4824 11.7586 41.48 11.754L42.184 11.3835C42.1263 11.274 42.0367 11.1755 41.9525 11.0943C41.8627 11.0077 41.7526 10.9159 41.629 10.8211C41.3815 10.6313 41.0586 10.4132 40.688 10.1793C39.9455 9.71066 38.9868 9.16319 37.9997 8.62807C36.0361 7.56355 33.9104 6.52085 33.1251 6.24368L32.8603 6.99386ZM41.7403 11.9558C42.1738 12.0585 42.7198 12.1545 43.271 12.2519C43.8284 12.3503 44.3956 12.4508 44.8925 12.5643C45.3997 12.68 45.7902 12.8002 46.0159 12.9242C46.1331 12.9886 46.1505 13.0249 46.1437 13.0122C46.1363 12.9984 46.1273 12.9715 46.1294 12.9385C46.1314 12.9077 46.1416 12.8948 46.1363 12.9032L46.8089 13.328C46.9419 13.1175 46.9688 12.8678 46.845 12.6366C46.7422 12.4447 46.5608 12.3159 46.399 12.227C46.0666 12.0444 45.5787 11.9049 45.0695 11.7887C44.5498 11.6701 43.9624 11.5661 43.4094 11.4685C42.8501 11.3697 42.3299 11.2779 41.9237 11.1817L41.7403 11.9558ZM46.1363 12.9032C46.0231 13.0825 45.9761 13.3058 45.9458 13.491C45.9174 13.664 45.887 13.9338 45.8582 14.1267C45.7919 14.5722 45.684 15.0295 45.4053 15.4325C44.8729 16.2021 43.5617 16.9688 39.9313 16.5654L39.8434 17.3561C43.5498 17.7679 45.2661 17.0319 46.0595 15.8851C46.4437 15.3298 46.5734 14.7255 46.6451 14.2439C46.6854 13.9733 46.6991 13.8133 46.7308 13.6197C46.7605 13.4385 46.7895 13.3587 46.8089 13.328L46.1363 12.9032ZM39.9313 16.5654C37.337 16.2771 35.6615 15.0963 35.1569 13.4L34.3943 13.6268C35.025 15.7465 37.0734 17.0483 39.8434 17.3561L39.9313 16.5654Z" fill="white"/>
<path d="M41.8774 11.6133C40.8903 11.9227 38.8544 12.6917 38.6069 13.2927C38.3594 13.8938 41.0377 14.6039 42.4077 14.8838C43.7778 15.1637 45.7405 13.9531 46.4738 12.7624" stroke="white" stroke-width="0.795534"/>
<path d="M47.8755 53.8508L46.9254 54.1583L47.9487 57.3203C48.0335 57.5825 48.071 57.8082 48.0611 57.9973C48.0513 58.1863 48.0079 58.3479 47.9311 58.4821C47.8526 58.6114 47.748 58.719 47.6174 58.805C47.4916 58.8895 47.352 58.9565 47.1986 59.0061C47.1244 59.0302 47.0576 59.0518 46.9982 59.071C46.9389 59.0902 46.8729 59.1061 46.8004 59.1186L46.5602 58.3763C46.6064 58.3669 46.6542 58.3541 46.7037 58.3381C46.7532 58.3221 46.8002 58.3069 46.8447 58.2925C46.9734 58.2509 47.0718 58.1835 47.1401 58.0903C47.2133 57.9956 47.217 57.8467 47.1514 57.6439L45.8687 53.6802L48.4518 52.8443L50.1332 58.0401L49.3167 58.3043L47.8755 53.8508ZM51.6894 56.7165C51.818 56.6749 51.9058 56.6082 51.9527 56.5165C51.9995 56.4248 51.9925 56.285 51.9317 56.0969L51.6795 55.3176C51.6186 55.1295 51.5423 55.0121 51.4506 54.9652C51.359 54.9184 51.2488 54.9158 51.1201 54.9574L50.7341 55.0823L51.3034 56.8414L51.6894 56.7165ZM50.7271 57.8479L49.0458 52.6521L49.8622 52.3879L50.494 54.34L50.8799 54.2151C51.2906 54.0822 51.6302 54.0926 51.8986 54.2463C52.1719 54.3984 52.3766 54.6847 52.5128 55.1053L52.7313 55.7808C52.8675 56.2014 52.8693 56.5534 52.7369 56.8368C52.6094 57.1185 52.3403 57.3259 51.9296 57.4588L50.7271 57.8479ZM54.3343 56.6806L53.5178 56.9448L51.8365 51.7491L53.9964 51.0501L54.2366 51.7923L52.8931 52.2271L54.3343 56.6806ZM56.4031 54.691C56.464 54.879 56.5443 55.0006 56.6442 55.0557C56.7474 55.1043 56.8633 55.1078 56.9919 55.0662C57.1206 55.0246 57.21 54.9546 57.2602 54.8564C57.3138 54.7516 57.3101 54.6052 57.2493 54.4171L56.3413 51.6114C56.2805 51.4234 56.1985 51.3051 56.0953 51.2565C55.9954 51.2013 55.8812 51.1945 55.7525 51.2362C55.6239 51.2778 55.5328 51.351 55.4792 51.4558C55.429 51.5541 55.4343 51.6972 55.4952 51.8852L56.4031 54.691ZM54.6955 52.2014C54.5594 51.7808 54.5617 51.4247 54.7024 51.1332C54.8415 50.8367 55.1115 50.6236 55.5123 50.4939C55.9131 50.3642 56.2568 50.3787 56.5432 50.5375C56.828 50.6913 57.0385 50.9785 57.1746 51.3992L58.0489 54.101C58.1851 54.5216 58.1836 54.8801 58.0444 55.1766C57.9037 55.4681 57.6329 55.6787 57.2321 55.8084C56.8313 55.9382 56.4885 55.9261 56.2036 55.7723C55.9172 55.6135 55.7059 55.3238 55.5698 54.9032L54.6955 52.2014ZM57.0647 50.0572L59.5884 49.2405L59.8285 49.9827L58.975 50.259L60.4161 54.7125L59.5997 54.9767L58.1585 50.5232L57.3049 50.7994L57.0647 50.0572ZM62.6057 53.1839C62.7344 53.1423 62.8221 53.0756 62.869 52.984C62.9158 52.8923 62.9089 52.7524 62.848 52.5644L62.5958 51.785C62.5349 51.597 62.4587 51.4795 62.367 51.4326C62.2753 51.3858 62.1651 51.3832 62.0365 51.4248L61.6505 51.5497L62.2197 53.3088L62.6057 53.1839ZM61.6435 54.3153L59.9621 49.1196L60.7786 48.8553L61.4103 50.8075L61.7963 50.6826C62.207 50.5496 62.5465 50.56 62.8149 50.7137C63.0883 50.8658 63.293 51.1521 63.4291 51.5727L63.6477 52.2482C63.7838 52.6688 63.7856 53.0208 63.6532 53.3042C63.5257 53.5859 63.2566 53.7933 62.8459 53.9262L61.6435 54.3153ZM62.7826 48.2068L63.5991 47.9426L65.2805 53.1384L64.464 53.4026L62.7826 48.2068ZM66.4088 51.904L66.6634 52.6908L65.8766 52.9454L65.622 52.1587L66.4088 51.904ZM70.1136 51.5744C70.0924 51.5429 70.0721 51.514 70.0526 51.4875C70.0331 51.461 70.0112 51.4271 69.9869 51.3857C69.9676 51.3428 69.9442 51.2875 69.9168 51.2198C69.8944 51.1505 69.8664 51.0639 69.8328 50.96L69.5685 50.1436C69.4901 49.9011 69.3928 49.744 69.2766 49.6722C69.1605 49.6005 69.0084 49.595 68.8203 49.6559L68.5383 49.7472L69.2228 51.8626L68.4064 52.1268L66.725 46.931L67.9571 46.5323C68.3827 46.3946 68.7215 46.3943 68.9736 46.5314C69.2306 46.6668 69.424 46.935 69.5537 47.3358L69.6858 47.7441C69.8588 48.2785 69.7943 48.6875 69.4925 48.971C69.7275 48.9879 69.9134 49.0808 70.0501 49.2497C70.1901 49.4122 70.3042 49.6294 70.3922 49.9016L70.6516 50.7032C70.6933 50.8319 70.7351 50.9441 70.777 51.0399C70.8173 51.1307 70.8733 51.2192 70.9449 51.3053L70.1136 51.5744ZM67.7817 47.4091L68.2981 49.0049L68.6173 48.9016C68.7707 48.852 68.8766 48.774 68.9351 48.6676C68.9986 48.5596 68.9967 48.4017 68.9294 48.1938L68.7637 47.6817C68.7028 47.4936 68.6241 47.3688 68.5276 47.3071C68.4361 47.2438 68.3186 47.2353 68.1751 47.2818L67.7817 47.4091ZM70.4908 45.7124L71.7878 49.7206C71.8487 49.9086 71.9282 50.0277 72.0265 50.0779C72.1297 50.1265 72.2456 50.13 72.3742 50.0884C72.5029 50.0468 72.5923 49.9768 72.6425 49.8786C72.6977 49.7787 72.6948 49.6348 72.634 49.4468L71.3369 45.4386L72.1089 45.1888L73.3891 49.145C73.5252 49.5656 73.5262 49.9233 73.392 50.2182C73.2612 50.5066 72.9954 50.7156 72.5946 50.8453C72.1938 50.975 71.8534 50.9621 71.5735 50.8067C71.297 50.6447 71.0906 50.3534 70.9545 49.9328L69.6743 45.9766L70.4908 45.7124Z" fill="#141414"/>
<path d="M33.4365 20.8501L47.4468 17.7122C47.4468 17.7122 49.4666 21.7219 50.4079 24.43C51.5073 27.5927 52.9713 32.2528 52.9713 32.2528L39.0671 36.0853L33.4365 20.8501Z" fill="#141414"/>
<path d="M40.6836 39.4123L65.6545 31.9873" stroke="black" stroke-width="0.265178"/>
<path d="M41.877 42.9474L66.8479 35.5225" stroke="black" stroke-width="0.265178"/>
<path d="M41.3457 41.0915L66.3166 33.6665" stroke="black" stroke-width="0.265178"/>
<path d="M42.5391 44.6266L67.51 37.2017" stroke="black" stroke-width="0.265178"/>
<path d="M43.4688 46.6603L68.4397 39.2354" stroke="black" stroke-width="0.265178"/>
<defs>
<linearGradient id="paint0_linear_401_315" x1="69.5" y1="52.5" x2="3" y2="2.5" gradientUnits="userSpaceOnUse">
<stop stop-color="#352919"/>
<stop offset="1" stop-color="white"/>
</linearGradient>
</defs>
</svg>
