<svg width="72" height="61" viewBox="0 0 72 61" fill="none" xmlns="http://www.w3.org/2000/svg">
<path d="M40.7554 59.5698C34.0286 32.9431 29.8244 20.6507 24.5791 15.7658C27.253 15.2694 27.7539 15.2096 32.6715 14.3228L35.0338 15.4439L38.9578 15.6441L41.2401 14.7632L42.161 12.5856C45.8221 11.9062 49.4882 11.2142 51.9666 10.7207C58.4371 11.4895 67.1553 36.4266 70.7055 48.799C68.3298 49.6532 59.0137 53.0032 40.7554 59.5698Z" fill="#D9D9D9" fill-opacity="0.32"/>
<path d="M20.2951 21.1325C17.5714 19.9713 16.3956 21.6128 16.7707 23.1344C17.5306 26.2177 19.7079 27.846 20.2952 28.2598" stroke="white" stroke-width="0.720725"/>
<path d="M27.7036 19.8504L25.7416 18.2488C23.8997 18.0086 22.8834 19.4971 22.9614 20.9715M31.0269 27.0577C30.3062 26.9776 25.7416 23.8144 23.6195 22.4931C23.1814 21.9341 22.9855 21.4265 22.9614 20.9715M22.9614 20.9715C18.8948 19.7303 18.6144 24.1347 20.5764 25.0156C23.0722 27.0577 28.3602 31.0697 29.5454 30.7814" stroke="white" stroke-width="0.720725"/>
<path d="M24.0576 9.64111C24.6983 11.7632 31.5852 14.0375 33.5071 14.8063" stroke="white" stroke-width="0.720725"/>
<path d="M32.5475 31.3418L30.1451 30.581L26.8618 31.9824C24.8438 32.4309 24.2992 31.9824 22.6976 30.581L19.9348 27.9784C17.5324 28.1386 12.7434 23.9999 12.0469 23.2537C11.4863 22.6531 10.8323 21.2116 10.6054 20.5309L1.23605 15.8062C-0.36556 3.31361 6.57475 0.99127 10.2451 1.39167L16.4914 5.87618M32.5475 31.3418C35.2169 40.0839 40.5395 58.0246 40.4755 59.8505L70.9061 48.6792C67.169 36.4002 58.0932 11.6099 51.6868 10.681L42.1972 12.5229M32.5475 31.3418C29.7218 21.8923 26.0314 16.9673 24.5395 15.686L32.2272 14.2846" stroke="white" stroke-width="0.720725"/>
<path d="M22.6976 5.03602L22.6912 5.39633L22.7145 5.39673L22.7376 5.39415L22.6976 5.03602ZM29.9849 6.27727L29.7076 6.50739L29.7711 6.58397L29.865 6.61709L29.9849 6.27727ZM37.993 10.7618L37.6741 10.9296L37.7504 11.0747L37.9099 11.1124L37.993 10.7618ZM36.2312 15.6467L36.271 15.2885L36.271 15.2885L36.2312 15.6467ZM31.9455 12.4208C31.8888 12.23 31.6881 12.1214 31.4974 12.1781C31.3066 12.2349 31.198 12.4355 31.2547 12.6263L31.9455 12.4208ZM13.0569 9.01465C13.5793 8.31116 14.1945 7.40047 15.5561 6.66101C16.9235 5.91836 19.0784 5.33294 22.6912 5.39633L22.7039 4.67571C19.0134 4.61097 16.7237 5.20674 15.2121 6.02766C13.6947 6.85177 12.9965 7.88704 12.4783 8.58496L13.0569 9.01465ZM22.7376 5.39415C23.6728 5.28952 25.1556 5.22489 26.5511 5.37041C27.2488 5.44317 27.9126 5.56727 28.4705 5.75896C29.0333 5.95233 29.4552 6.20319 29.7076 6.50739L30.2622 6.04715C29.89 5.59858 29.3272 5.29122 28.7047 5.07735C28.0773 4.86179 27.3552 4.72964 26.6259 4.65358C25.1672 4.50147 23.6309 4.56897 22.6575 4.67789L22.7376 5.39415ZM29.865 6.61709C30.5149 6.84646 32.3929 7.76369 34.1775 8.73122C35.0651 9.21239 35.9182 9.69989 36.5719 10.1124C36.8993 10.3191 37.1711 10.5034 37.3704 10.6563C37.4702 10.7329 37.547 10.7978 37.6018 10.8507C37.6617 10.9085 37.6762 10.9337 37.6741 10.9296L38.3118 10.5939C38.2596 10.4947 38.1784 10.4055 38.1022 10.3319C38.0208 10.2535 37.921 10.1703 37.809 10.0844C37.5848 9.91245 37.2923 9.71485 36.9565 9.50295C36.2839 9.07841 35.4153 8.58242 34.521 8.09762C32.7421 7.1332 30.8163 6.18856 30.1048 5.93745L29.865 6.61709ZM37.9099 11.1124C38.3027 11.2055 38.7973 11.2925 39.2967 11.3807C39.8017 11.4699 40.3155 11.5609 40.7656 11.6637C41.2252 11.7686 41.579 11.8774 41.7834 11.9898C41.8896 12.0481 41.9054 12.0809 41.8992 12.0695C41.8925 12.057 41.8843 12.0326 41.8863 12.0027C41.8881 11.9748 41.8973 11.9631 41.8925 11.9708L42.5019 12.3556C42.6224 12.1648 42.6467 11.9386 42.5345 11.7292C42.4414 11.5554 42.2771 11.4387 42.1305 11.3581C41.8294 11.1927 41.3874 11.0663 40.926 10.961C40.4552 10.8535 39.923 10.7594 39.422 10.6709C38.9153 10.5814 38.444 10.4983 38.076 10.4111L37.9099 11.1124ZM41.8925 11.9708C41.7899 12.1331 41.7474 12.3355 41.7199 12.5033C41.6942 12.66 41.6666 12.9044 41.6406 13.0792C41.5805 13.4828 41.4828 13.8971 41.2302 14.2622C40.7479 14.9594 39.56 15.654 36.271 15.2885L36.1914 16.0048C39.5492 16.3779 41.1041 15.7112 41.8229 14.6722C42.171 14.1691 42.2885 13.6217 42.3534 13.1854C42.39 12.9402 42.4024 12.7952 42.4311 12.6199C42.458 12.4557 42.4843 12.3834 42.5019 12.3556L41.8925 11.9708ZM36.271 15.2885C33.9207 15.0274 32.4027 13.9576 31.9455 12.4208L31.2547 12.6263C31.826 14.5467 33.6818 15.726 36.1914 16.0048L36.271 15.2885Z" fill="white"/>
<path d="M38.0332 10.8022C37.1389 11.0825 35.2944 11.7792 35.0702 12.3238C34.846 12.8683 37.2724 13.5116 38.5137 13.7652C39.7549 14.0188 41.533 12.922 42.1974 11.8433" stroke="white" stroke-width="0.720725"/>
<path d="M43.3331 48.6534L42.4723 48.9319L43.3994 51.7966C43.4762 52.0342 43.5102 52.2386 43.5013 52.4099C43.4923 52.5812 43.453 52.7276 43.3834 52.8492C43.3123 52.9663 43.2176 53.0638 43.0992 53.1417C42.9853 53.2182 42.8588 53.2789 42.7199 53.3239C42.6526 53.3457 42.5921 53.3652 42.5383 53.3827C42.4845 53.4001 42.4248 53.4144 42.3591 53.4258L42.1415 52.7533C42.1833 52.7448 42.2266 52.7332 42.2714 52.7187C42.3163 52.7042 42.3589 52.6904 42.3992 52.6774C42.5158 52.6396 42.605 52.5786 42.6668 52.4942C42.7331 52.4084 42.7365 52.2735 42.6771 52.0897L41.515 48.4988L43.8552 47.7415L45.3784 52.4487L44.6387 52.6881L43.3331 48.6534ZM46.7883 51.2496C46.9049 51.2119 46.9844 51.1515 47.0268 51.0684C47.0693 50.9853 47.0629 50.8586 47.0078 50.6883L46.7793 49.9822C46.7242 49.8118 46.6551 49.7054 46.572 49.663C46.489 49.6205 46.3891 49.6182 46.2726 49.6559L45.9229 49.769L46.4386 51.3628L46.7883 51.2496ZM45.9166 52.2746L44.3933 47.5674L45.133 47.328L45.7053 49.0966L46.055 48.9834C46.4271 48.863 46.7347 48.8724 46.9778 49.0116C47.2255 49.1494 47.4109 49.4088 47.5343 49.7899L47.7323 50.4018C47.8556 50.7829 47.8573 51.1018 47.7373 51.3585C47.6218 51.6138 47.378 51.8016 47.0059 51.9221L45.9166 52.2746ZM49.1845 51.217L48.4448 51.4564L46.9216 46.7492L48.8784 46.116L49.096 46.7885L47.8789 47.1823L49.1845 51.217ZM51.0588 49.4145C51.1139 49.5849 51.1867 49.695 51.2772 49.745C51.3706 49.789 51.4757 49.7922 51.5922 49.7545C51.7088 49.7167 51.7898 49.6534 51.8353 49.5644C51.8838 49.4694 51.8805 49.3368 51.8254 49.1664L51.0028 46.6246C50.9477 46.4542 50.8734 46.347 50.7799 46.303C50.6894 46.253 50.5859 46.2469 50.4694 46.2846C50.3528 46.3223 50.2703 46.3886 50.2217 46.4836C50.1763 46.5726 50.1811 46.7023 50.2362 46.8726L51.0588 49.4145ZM49.5117 47.1591C49.3884 46.778 49.3905 46.4554 49.518 46.1913C49.644 45.9227 49.8886 45.7297 50.2518 45.6121C50.6149 45.4946 50.9262 45.5078 51.1857 45.6516C51.4437 45.791 51.6344 46.0512 51.7577 46.4323L52.5498 48.88C52.6732 49.261 52.6718 49.5859 52.5458 49.8545C52.4183 50.1186 52.173 50.3094 51.8098 50.4269C51.4467 50.5444 51.1361 50.5335 50.8781 50.3941C50.6186 50.2503 50.4272 49.9879 50.3038 49.6068L49.5117 47.1591ZM51.6581 45.2165L53.9445 44.4766L54.1621 45.149L53.3888 45.3993L54.6944 49.434L53.9547 49.6734L52.6491 45.6387L51.8758 45.8889L51.6581 45.2165ZM56.6781 48.0492C56.7947 48.0115 56.8742 47.9511 56.9166 47.868C56.9591 47.7849 56.9527 47.6582 56.8976 47.4879L56.6691 46.7818C56.614 46.6114 56.5449 46.505 56.4618 46.4626C56.3787 46.4201 56.2789 46.4178 56.1624 46.4555L55.8127 46.5686L56.3284 48.1624L56.6781 48.0492ZM55.8063 49.0742L54.2831 44.367L55.0228 44.1276L55.5951 45.8962L55.9448 45.783C56.3169 45.6626 56.6245 45.672 56.8676 45.8113C57.1153 45.949 57.3007 46.2084 57.4241 46.5895L57.6221 47.2014C57.7454 47.5825 57.7471 47.9014 57.6271 48.1581C57.5116 48.4134 57.2678 48.6012 56.8957 48.7217L55.8063 49.0742ZM56.8384 43.5401L57.5781 43.3007L59.1014 48.0079L58.3617 48.2473L56.8384 43.5401ZM60.1236 46.8897L60.3542 47.6025L59.6414 47.8331L59.4108 47.1203L60.1236 46.8897ZM63.4799 46.591C63.4608 46.5625 63.4424 46.5363 63.4247 46.5123C63.4071 46.4883 63.3872 46.4575 63.3652 46.4201C63.3477 46.3812 63.3265 46.3311 63.3017 46.2698C63.2814 46.207 63.256 46.1286 63.2255 46.0344L62.9862 45.2947C62.9151 45.0751 62.8269 44.9327 62.7217 44.8677C62.6165 44.8027 62.4787 44.7978 62.3083 44.8529L62.0528 44.9356L62.673 46.8521L61.9333 47.0915L60.41 42.3843L61.5263 42.0231C61.9118 41.8983 62.2188 41.898 62.4472 42.0222C62.68 42.145 62.8552 42.3879 62.9727 42.751L63.0924 43.1209C63.2491 43.605 63.1907 43.9756 62.9173 44.2324C63.1302 44.2477 63.2986 44.3319 63.4224 44.485C63.5493 44.6321 63.6526 44.829 63.7324 45.0755L63.9674 45.8018C64.0051 45.9183 64.043 46.02 64.081 46.1068C64.1175 46.189 64.1682 46.2692 64.2331 46.3472L63.4799 46.591ZM61.3673 42.8174L61.8352 44.2632L62.1243 44.1696C62.2633 44.1246 62.3593 44.0539 62.4123 43.9575C62.4698 43.8597 62.4681 43.7166 62.4071 43.5283L62.257 43.0644C62.2019 42.894 62.1306 42.7809 62.0432 42.725C61.9602 42.6676 61.8537 42.66 61.7237 42.702L61.3673 42.8174ZM63.8217 41.2803L64.9968 44.9115C65.0519 45.0819 65.124 45.1898 65.213 45.2353C65.3065 45.2793 65.4115 45.2825 65.528 45.2447C65.6446 45.207 65.7256 45.1437 65.7711 45.0547C65.8211 44.9642 65.8185 44.8338 65.7634 44.6634L64.5883 41.0322L65.2876 40.8059L66.4475 44.3901C66.5708 44.7711 66.5717 45.0952 66.4501 45.3624C66.3316 45.6236 66.0908 45.8129 65.7276 45.9305C65.3645 46.048 65.0562 46.0363 64.8026 45.8955C64.5521 45.7488 64.3651 45.4849 64.2418 45.1038L63.082 41.5196L63.8217 41.2803Z" fill="white"/>
<path d="M30.3862 19.1704L43.079 16.3276C43.079 16.3276 44.9089 19.9602 45.7617 22.4137C46.7577 25.2789 48.084 29.5008 48.084 29.5008L35.4873 32.9729L30.3862 19.1704Z" fill="white"/>
<path d="M36.9517 35.987L59.5744 29.2603" stroke="white" stroke-width="0.240242"/>
<path d="M38.0327 39.1897L60.6555 32.4629" stroke="white" stroke-width="0.240242"/>
<path d="M37.5522 37.508L60.175 30.7812" stroke="white" stroke-width="0.240242"/>
<path d="M38.6333 40.7111L61.2561 33.9844" stroke="white" stroke-width="0.240242"/>
<path d="M39.4746 42.5539L62.0974 35.8271" stroke="white" stroke-width="0.240242"/>
</svg>
