<svg width="12" height="9" viewBox="0 0 12 9" fill="none" xmlns="http://www.w3.org/2000/svg">
<path d="M0.808398 0.00790977C0.789648 0.0149412 0.726367 0.0360351 0.670117 0.0571289L0.569336 0.0946288L1.43184 0.959473C3.49199 3.02432 5.37168 4.86416 5.47246 4.91572C5.79824 5.08213 6.17793 5.08213 6.50371 4.91572C6.60449 4.86416 8.48418 3.02432 10.542 0.959473L11.4068 0.0946288L11.3037 0.0500975C11.2053 0.00790977 11.0529 0.00556612 6.02324 0.000878811C3.17559 -0.00146484 0.827148 0.00322247 0.808398 0.00790977Z" fill="white"/>
<path d="M0.0421875 0.689844C0.00234375 0.797656 0 0.954687 0 4.22422C0 7.59687 0 7.64844 0.046875 7.74687L0.09375 7.84766L1.92188 6.03125L3.75 4.21719L3.05859 3.52109C2.67891 3.13906 1.85391 2.32109 1.22578 1.70234L0.0867188 0.577343L0.0421875 0.689844Z" fill="white"/>
<path d="M10.0547 2.39609L8.22656 4.2125L10.0547 6.02891L11.8828 7.84766L11.9297 7.74687C11.9766 7.64844 11.9766 7.59687 11.9766 4.2125C11.9766 0.828125 11.9766 0.776562 11.9297 0.678125L11.8828 0.577343L10.0547 2.39609Z" fill="white"/>
<path d="M2.39316 6.51396L0.567383 8.32568L0.670508 8.37256C0.773633 8.41943 0.806445 8.41943 5.97676 8.41943C11.0111 8.41943 11.1846 8.41709 11.2947 8.3749L11.4072 8.33037L10.6971 7.61787C10.3057 7.22646 9.48066 6.4085 8.86426 5.80146L7.74395 4.69756L7.43457 4.9999C7.06895 5.36084 6.98926 5.42412 6.7666 5.53662C6.16191 5.83896 5.42832 5.76162 4.90098 5.3374C4.82129 5.27412 4.64316 5.10771 4.5002 4.96475C4.35957 4.82178 4.2377 4.70459 4.23066 4.70459C4.22363 4.70459 3.39629 5.52021 2.39316 6.51396Z" fill="white"/>
</svg>
