<svg width="17" height="17" viewBox="0 0 17 17" fill="none" xmlns="http://www.w3.org/2000/svg">
<path d="M14.9644 2.29424C14.8283 2.32745 1.43416 7.45069 1.28474 7.52706C0.985915 7.67979 0.985915 8.22432 1.28806 8.38038C1.33787 8.40694 2.15466 8.69249 3.10095 9.01124L4.81756 9.59561L8.87498 7.11534C11.1029 5.75069 12.959 4.63507 12.9988 4.63507C13.042 4.63174 13.0652 4.65167 13.0652 4.69815C13.0652 4.74131 12.109 5.64444 10.0537 7.53702C8.39685 9.06104 7.00896 10.3394 6.97244 10.3759C6.91267 10.439 6.89607 10.5685 6.78982 12.0327C6.72673 12.9093 6.67361 13.653 6.67361 13.6862C6.67361 13.7925 6.82302 13.912 6.95584 13.912C7.06873 13.912 7.13845 13.8523 8.05818 12.9491L9.03767 11.9896L9.44275 12.2983C10.6513 13.2214 12.4709 14.5894 12.5738 14.6491C12.7133 14.7355 13.022 14.7421 13.1681 14.6657C13.2744 14.6093 13.4205 14.4632 13.4736 14.3603C13.4935 14.3237 14.0547 11.8103 14.722 8.77881C15.572 4.91397 15.9373 3.20401 15.9373 3.06788C15.9373 2.83546 15.8576 2.64952 15.7015 2.5001C15.509 2.31749 15.2101 2.23448 14.9644 2.29424Z" fill="white"/>
</svg>
