<svg width="49" height="48" viewBox="0 0 49 48" fill="none" xmlns="http://www.w3.org/2000/svg">
<path d="M5.30062 0.181236C3.08814 0.762482 1.25065 2.60935 0.688148 4.83121C0.500649 5.54371 0.500649 5.94683 0.500649 23.9842C0.500649 44.4873 0.453774 42.9404 1.1569 44.3841C1.77564 45.6685 2.82564 46.7185 4.11001 47.3372C5.55375 48.0404 4.00688 47.9935 24.5005 47.9935C44.9942 47.9935 43.4473 48.0404 44.8911 47.3372C46.5692 46.5216 47.8535 44.956 48.3129 43.156C48.5004 42.4435 48.5004 42.0404 48.5004 23.9936C48.5004 5.94683 48.5004 5.54371 48.3129 4.83121C47.741 2.5906 45.9035 0.753109 43.6629 0.181236C42.9504 -0.00626373 42.5567 -0.00626373 24.463 0.00311279C6.59437 0.00311279 5.96625 0.0124855 5.30062 0.181236ZM38.7505 12.5562C39.1723 12.7718 39.4067 13.1468 39.4067 13.6062C39.4067 14.1405 34.7192 34.7092 34.5411 34.9529C34.1192 35.5529 33.3317 35.7779 32.7505 35.4779C32.5817 35.3842 30.8567 34.2404 28.9255 32.9279C25.8786 30.8655 25.4005 30.5655 25.2693 30.6686C25.1755 30.7342 24.3037 31.5592 23.3193 32.4873C21.463 34.2498 21.2568 34.3904 20.6568 34.2592C20.0756 34.1279 19.9349 33.8279 18.5474 29.7405L17.2349 25.8874L13.6725 24.9124C9.73498 23.8436 9.59435 23.778 9.59435 23.1499C9.59435 22.9061 9.65998 22.728 9.80998 22.5874C10.0725 22.3342 37.6161 12.3781 38.0755 12.3687C38.2442 12.3687 38.5536 12.453 38.7505 12.5562Z" fill="white"/>
<path d="M26.1131 20.8152C19.6632 24.5089 18.3976 25.2683 18.3507 25.4652C18.2569 25.812 20.3663 32.0651 20.5632 32.037C20.6757 32.0089 20.7507 31.6339 20.9101 30.3214C21.0226 29.3933 21.1444 28.3995 21.1913 28.1183L21.2663 27.6027L27.7538 22.3058C33.3225 17.759 34.2412 16.9715 34.2506 16.7652C34.2506 16.5402 34.11 16.3996 33.885 16.3996C33.8569 16.3996 30.3506 18.3871 26.1131 20.8152Z" fill="white"/>
</svg>
