<svg width="49" height="49" viewBox="0 0 49 49" fill="none" xmlns="http://www.w3.org/2000/svg">
<path d="M17.2628 0.0322914C12.3919 0.121941 8.95535 0.560223 6.67429 1.3571C5.28972 1.84518 4.34343 2.41296 3.41707 3.30944C1.395 5.27174 0.538356 8.06081 0.110036 14.0573C-0.049339 16.2587 -0.0294171 32.7639 0.129958 35.304C0.717653 44.6374 3.63621 47.6954 12.6309 48.3727C14.5434 48.5122 34.555 48.5221 36.0391 48.3827C39.3063 48.0739 41.1491 47.6456 42.8923 46.769C45.5419 45.4342 47.1854 43.0436 47.9425 39.4079C48.4405 36.9674 48.4604 36.5491 48.5102 27.0065C48.58 13.1409 48.3907 9.99323 47.3249 6.94518C45.8606 2.77155 42.972 0.928776 36.836 0.261395C35.2622 0.0820961 22.1934 -0.067318 17.2628 0.0322914ZM13.5673 15.6809C14.0553 15.92 14.2147 16.1889 14.7128 17.5536C15.8384 20.6614 17.7509 24.0581 19.2151 25.5323C19.8427 26.1698 19.9721 26.2594 20.2909 26.2594C20.5698 26.2594 20.6794 26.1997 20.8188 25.9905C20.9782 25.7415 20.9981 25.4128 20.9981 22.3747C20.9981 18.5198 20.9682 18.3604 20.1514 17.2348C19.6434 16.5475 19.5538 16.1889 19.7829 15.8901C20.0618 15.5315 20.2809 15.5016 23.2891 15.5016C26.397 15.5016 26.6759 15.5415 26.885 15.9698C26.9348 16.0694 26.9846 17.9421 26.9946 20.1335C27.0145 22.3249 27.0444 24.2174 27.0743 24.337C27.1042 24.4665 27.2337 24.6358 27.3632 24.7155C27.5823 24.8549 27.6421 24.8549 27.9608 24.7255C28.5087 24.4964 29.0366 24.0282 29.7936 23.0919C31.0188 21.5678 32.3137 19.3964 33.26 17.2946C33.778 16.1192 34.0768 15.7407 34.5848 15.6012C34.7841 15.5514 35.8399 15.5016 36.9356 15.5016C38.629 15.5016 38.9776 15.5315 39.2764 15.6809C39.6151 15.8503 39.6251 15.8702 39.6151 16.4081C39.5952 17.3942 38.6788 19.1274 36.079 23.0819C34.4753 25.5024 34.3956 25.7016 34.7841 26.3092C34.8837 26.4686 35.5909 27.2555 36.3479 28.0524C39.3262 31.1901 40.5514 32.9831 40.3323 33.8796C40.2925 34.019 40.1231 34.2182 39.9438 34.3278C39.655 34.5071 39.4358 34.527 37.4038 34.527C35.7503 34.527 35.1028 34.4971 34.8637 34.3876C34.4852 34.2282 34.0768 33.8397 32.3735 32.0169C30.3216 29.8155 28.9768 28.8493 27.9708 28.8493C27.0643 28.8493 27.0843 28.7995 27.0245 31.4092C26.9647 33.8796 26.9348 34.009 26.397 34.2979C25.879 34.5669 23.837 34.5967 22.6417 34.3477C19.7231 33.7401 17.0237 32.0368 14.8622 29.4669C13.8561 28.2715 12.0432 25.5522 11.0571 23.7692C9.3239 20.6614 8.00906 16.9758 8.30789 16.1192C8.49715 15.5714 8.79597 15.5016 11.1368 15.5016C12.9298 15.5016 13.2784 15.5215 13.5673 15.6809Z" fill="white"/>
</svg>
